# xmcd CD database file
#
# Track frame offsets:
#	150
#	23694
#	44337
#	63287
#	76487
#	91832
#	110637
#	128472
#	146587
#	162712
#	180760
#	198895
#	214457
#
# Disc length: 3072 seconds
#
# Revision: 0
# Processed by: cddbd v1.5.1PL0 Copyright (c) Steve Scherf et al.
# Submitted via: CDex 1.51
#
DISCID=ab0bfe0d
DTITLE=安柏玉·蓮恩 - 女人弓
DYEAR=2005
DGENRE=New Age
TTITLE0=Prisme 女人弓
TTITLE1=Korstog 聖十字
TTITLE2=Flopteren 原木駛者
TTITLE3=Villvinter 野冬
TTITLE4=Aprilbarnet 四月的小孩
TTITLE5=Fonix 永生島
TTITLE6=Galadriel 精靈之舞
TTITLE7=Cantabile 如歌的
TTITLE8=Luseblus 藍色毛衣
TTITLE9=Hauk 霍可
TTITLE10=Vidvandre 漫遊
TTITLE11=Valhalling 廟宴
TTITLE12=Ringen 戒指
EXTD=YEAR: 2005
EXTT0=
EXTT1=
EXTT2=
EXTT3=
EXTT4=
EXTT5=
EXTT6=
EXTT7=
EXTT8=
EXTT9=
EXTT10=
EXTT11=
EXTT12=
PLAYORDER=
